<?xml version="1.0" encoding="UTF-8"?>
<svg id="Layer_2" data-name="Layer 2" xmlns="http://www.w3.org/2000/svg" viewBox="0 0 398.43 398.43">
  <defs>
    <style>
      .cls-1 {
        fill: #fff;
      }

      .cls-2 {
        fill: #ced20b;
      }
    </style>
  </defs>
  <path class="cls-2" d="m138.91,0h120.61c40,0,60,0,81.52,6.81,23.51,8.56,42.02,27.07,50.58,50.58,6.81,21.53,6.81,41.53,6.81,81.52v120.61c0,40,0,60-6.81,81.53-8.56,23.51-27.07,42.02-50.58,50.58-21.53,6.81-41.53,6.81-81.52,6.81h-120.61c-40,0-60,0-81.53-6.81-23.51-8.55-42.02-27.07-50.58-50.58-6.81-21.53-6.81-41.53-6.81-81.53v-120.61c0-40,0-60,6.81-81.52C15.36,33.88,33.88,15.36,57.38,6.81,78.91,0,98.91,0,138.91,0h0Z"/>
  <g>
    <path class="cls-1" d="m211.96,137.12v94.63h91.71v-94.63h-91.71Zm-145.95-20.77c-.16,1.54-.3,2.36-.31,3.19-.39,28.87-.7,57.73-1.25,86.6-.08,4.08,1.39,4.81,5.04,4.78,16.66-.16,33.32-.06,49.99-.05,9.58,0,19.16.06,28.74,0,5.98-.03,8.49-2.62,8.46-8.39-.13-27.08-.31-54.15-.3-81.23,0-3.62-.7-5.04-4.76-5.02-26.94.19-53.87.1-80.81.1-1.49,0-2.99,0-4.8,0Zm-.31-8.11h90.3c-.2-3.87-.46-7.44-.56-11.01-.09-3.12-1.24-5.26-4.01-7.14-9.23-6.28-18.22-12.92-27.27-19.45-.78-.56-1.36-1.41-2.03-2.12,1.75-.37,3.07-.07,4.26.49,13.32,6.36,26.57,12.85,39.96,19.06,2.55,1.19,3.63,2.72,3.76,5.3.26,4.95.53,9.9.81,14.94h5.47c0-5.63-.12-11.01.06-16.39.08-2.3-.72-3.36-2.79-4.35-16.42-7.83-32.78-15.78-49.12-23.78-3.37-1.65-6.4-1.04-9.52.53-4.56,2.3-9.14,4.55-13.74,6.76-10.8,5.19-21.64,10.29-32.4,15.57-1.3.64-2.99,2.18-3.05,3.37-.31,5.91-.14,11.85-.14,18.2Zm258.12,123.61v-94.67h-6.57v94.67h6.57Zm-153.12-115.3c0,15.41-.17,30.4.05,45.38.21,14.93-1.03,29.88,1.11,44.81h5.08c-.96-1.06-1.39-1.68-1.96-2.16-3.14-2.63-3.15-4.3-.59-7.23,1.04-1.19,1.9-3.01,1.9-4.54.12-24.16.08-48.31.07-72.47,0-1.21-.14-2.42-.23-3.8h-5.44Z"/>
    <path class="cls-1" d="m313.51,328.73v-74.51c-7.83,4.88-14.46,9.44-21.49,13.27-5.4,2.94-7.75,6.74-7.11,12.9.35,3.37-.35,6.86-.6,10.77-10.04,0-19.74.07-29.44-.13-.84-.02-2.27-1.77-2.35-2.8-.29-3.87.18-7.81-.28-11.64-.23-1.86-1.48-4.16-2.99-5.19-7.17-4.86-14.58-9.36-21.93-13.96-1.15-.72-2.42-1.23-4.41-2.23v72.03c-4.01.2-7.41.38-11.17.57v-88.2h112.2c.44,29.53.89,59.05,1.34,89.12m-158.47-20.93v-74.93c-3.87,2.27-6.89,3.97-9.84,5.79-5.28,3.27-10.48,6.67-15.77,9.92-2.43,1.49-3.87,3.27-3.77,6.35.13,3.88-.15,7.77-.26,11.66-.06,2.05-.71,3.4-3.18,3.38-9.15-.07-18.3-.03-28.15-.03,0-4.42-.16-8.66.05-12.89.17-3.4-.86-5.49-4.01-7.34-8.66-5.07-17.03-10.65-26.6-16.72v72.8c-4.1.26-7.34.47-10.42.67v-87.18h96.94c.13.32.25.65.38.97-.89.48-1.8.91-2.66,1.44-.9.55-1.75,1.2-2.61,1.8.96.65,2.31,2.08,2.82,1.83,2.19-1.08,4.17-2.61,6.12-4.11.46-.35.55-1.21.83-1.89,3.14-.17,6.15-.33,9.64-.51.08,1.7.18,3.03.2,4.36.33,26.67.72,53.34.92,80,.03,3.53.91,4.81,4.69,4.79"/>
    <path class="cls-1" d="m268.37,81.9c4.2,2.28,8.33,4.72,12.63,6.8,12.91,6.25,25.86,12.4,38.85,18.49,3.08,1.44,4.58,3.25,4.27,6.95-.42,4.96-.1,9.98-.1,15.48h-7.21c0-5.21.2-10.33-.12-15.41-.1-1.57-1.27-3.81-2.58-4.46-13.88-6.82-27.88-13.38-41.86-19.99-.32-.15-.75-.06-2.41-.15,4.79,3.56,8.64,6.49,12.57,9.33,6.03,4.36,12.19,8.55,18.09,13.07,1.32,1.01,2.35,3,2.6,4.67.45,3,.02,6.11.29,9.15.29,3.32-.93,4.27-4.24,4.22-20.14-.27-40.28-.34-60.42-.44-8.85-.04-17.71,0-26.84,0,0-6.58-.19-12.66.16-18.72.07-1.28,1.91-2.93,3.32-3.6,14.34-6.83,28.79-13.43,43.13-20.25,2.9-1.38,5.49-3.4,8.22-5.13.56,0,1.11,0,1.67,0Z"/>
    <path class="cls-1" d="m211.96,137.12h91.71v94.63h-91.71v-94.63Z"/>
    <path class="cls-1" d="m66.01,116.35c1.81,0,3.3,0,4.8,0,26.94,0,53.88.09,80.81-.1,4.06-.03,4.76,1.4,4.76,5.02,0,27.08.17,54.15.3,81.23.03,5.77-2.48,8.35-8.46,8.39-9.58.05-19.16,0-28.74,0-16.66,0-33.33-.11-49.99.05-3.65.03-5.12-.7-5.04-4.78.55-28.86.85-57.73,1.25-86.6.01-.82.16-1.64.31-3.19Z"/>
    <path class="cls-1" d="m65.71,108.24c0-6.35-.17-12.29.14-18.2.06-1.2,1.75-2.73,3.05-3.37,10.75-5.29,21.6-10.39,32.4-15.57,4.6-2.21,9.19-4.46,13.74-6.76,3.12-1.58,6.15-2.18,9.52-.53,16.34,8,32.7,15.95,49.12,23.78,2.07.99,2.86,2.04,2.79,4.35-.18,5.38-.06,10.76-.06,16.39h-5.47c-.27-5.03-.55-9.98-.81-14.94-.13-2.58-1.21-4.12-3.76-5.3-13.39-6.21-26.64-12.7-39.96-19.06-1.19-.57-2.5-.86-4.26-.49.67.71,1.25,1.55,2.03,2.12,9.05,6.54,18.04,13.18,27.27,19.45,2.77,1.88,3.92,4.01,4.01,7.14.1,3.57.36,7.13.56,11.01h-90.3Z"/>
    <path class="cls-1" d="m323.83,231.84h-6.57v-94.67h6.57v94.67Z"/>
    <path class="cls-1" d="m170.71,116.54h5.44c.09,1.38.23,2.59.23,3.8.01,24.16.05,48.31-.07,72.47,0,1.54-.87,3.36-1.9,4.54-2.56,2.93-2.55,4.59.59,7.23.56.47,1,1.09,1.96,2.16h-5.08c-2.13-14.93-.89-29.88-1.11-44.81-.21-14.98-.05-29.97-.05-45.38Z"/>
  </g>
</svg>