<?xml version="1.0" encoding="UTF-8"?>
<svg id="Layer_2" data-name="Layer 2" xmlns="http://www.w3.org/2000/svg" viewBox="0 0 379.09 379.09">
  <defs>
    <style>
      .cls-1, .cls-2 {
        fill: #fff;
      }

      .cls-2 {
        fill-rule: evenodd;
      }

      .cls-3 {
        fill: #ced20b;
      }

      .cls-4 {
        fill: none;
      }
    </style>
  </defs>
  <path class="cls-3" d="m132.17,0h114.76c38.06,0,57.08,0,77.57,6.48,22.37,8.14,39.98,25.76,48.12,48.12,6.48,20.48,6.48,39.51,6.48,77.57v114.76c0,38.06,0,57.08-6.48,77.57-8.14,22.37-25.76,39.98-48.12,48.12-20.48,6.48-39.51,6.48-77.57,6.48h-114.76c-38.06,0-57.09,0-77.57-6.48-22.37-8.14-39.98-25.75-48.12-48.12C0,304.01,0,284.98,0,246.93v-114.76c0-38.06,0-57.09,6.48-77.57C14.62,32.23,32.23,14.62,54.6,6.48,75.08,0,94.11,0,132.17,0h0Z"/>
  <path class="cls-4" d="m162.24,224.73c6.46,0,11.69-8.3,11.69-18.54s-5.23-18.54-11.69-18.54-11.69,8.29-11.69,18.54,5.23,18.54,11.69,18.54Z"/>
  <path class="cls-4" d="m237.21,223.92c6.46,0,11.69-8.3,11.69-18.54s-5.23-18.54-11.69-18.54-11.69,8.3-11.69,18.54,5.23,18.54,11.69,18.54Z"/>
  <path class="cls-4" d="m226.3,248.13c-10.08-4.37-15.31-17.83-27.39-16.95l-1.61.8c-8.67-4.29-18.12,16.54-25.8,20.15-8.38,3.95-30.48,1.35-19.17,16.13,6.25,8.17,18.42,13.44,26.45,19.93,10.02,8.12,14.22,17.95,21.56,27.58,1.99-11.72,13.01-22.25,21.93-29.75,7.7-6.47,25.68-11.24,29.08-20.94,5.71-16.27-16.69-13.32-25.05-16.94Z"/>
  <path class="cls-2" d="m311.85,231.76c-.62,3.4-3.84,6.57-6.52,8.58-.47.35-.79.82-.67,1.7.35,2.61-.04,8.41-.78,10.89-.21-.34-.34-1.06-.61-1.26.02,1.18-.17,3.21-.54,4.3-.11-.46-.26-.97-.58-1.33,0,0-1.32,4.29-3,7.01-1.68,2.72-2.65,4.24-2.65,4.24,0,0,.06-.43-.1-.86-.16-.43-.29-.62-.29-.62,0,0-.25,1.62-1.85,3.34-1.6,1.72-3.2,3.2-5.98,5.09-2.78,1.89-3.4,2.21-3.4,2.21,0,0,.02-.14.09-.61.08-.47-.11-.68-.11-.68,0,0-.28.99-.9,1.86-.61.87-1.39,1.29-1.39,1.29,0,0,.03-.25.08-.61.05-.36-.09-.69-.09-.69,0,0-.5,1.07-2.16,1.94-1.65.87-4.64.81-4.64.81,0,0,4.2,7.28,4.58,7.91.38.62,1.11,1.25,2.01.97.9-.28,5.01-.96,6.53-1.16,1.52-.2,1.84.25,1.84.25,0,0,.34-.05,1.1.07.76.12,1.25.86,1.25.86,0,0-.76-.1-1.23-.12-.47-.02-.91-.05-.91-.05,0,0,.05.27-.07.44-.12.17-.37.44-.37.44,0,0,3.8.2,4.56.29.76.1,1.08.81,1.08.81,0,0,1.2.42,1.59.93.39.52.56,1.13.56,1.13,0,0-.64-.56-1.1-.76-.47-.2-.76-.15-.76-.15,0,0-.64.71-1.67.71s-3.04-.37-4-.34c-.96.02-1.4.17-1.4.17,0,0,2.77,1.03,3.46,1.32.69.29.47.78.47.78,0,0,1.1.78,1.35,1.13.24.34.32.83.32.83,0,0-.86-.39-1.2-.49-.34-.1-.59-.12-.59-.12,0,0-.96.47-1.99.12-1.03-.34-2.35-.91-2.84-1.13-.49-.22-3.87-1.18-5.03-1.44-1.16-.26-2.59-.53-4.22-.11-1.64.42-3.62.69-4.41.79-.79.11-1.16-.16-1.16-.16,0,0-.26.03-.87.26-.61.24-.87.45-.87.45,0,0-.21-.69.13-1.16.34-.47,1.27-1.27,1.27-1.27,0,0-3.59-.34-4.51-.24-.92.11-.92-.34-.92-.34,0,0-.79.05-1.4.24-.61.18-.79.18-.79.18,0,0,.29-.74.77-1.08.48-.34,1.5-.48,1.5-.48,0,0,.63-.87,1.85-1.03,1.21-.16,1.66-.34,2.24-.66.58-.32.58-.69.26-1.4-.32-.71-3.64-5.98-4.13-7.11-.49-1.14-.57-1.32-.08-1.89.49-.57,1.21-.99,1.21-.99-3.55.04-6.62-.6-8.95-5.22.44,0,1.05-.23,1.33-.53-1.16-.11-2.26-.44-2.74-1.28.51.09.97-.03,1.17-.34-2-.62-3.95-2.8-4.93-4.53.4,0,.77-.07,1.03-.48-1.39-.3-2.26-.86-2.45-1.86.8.33.95.12,1.07-.07-2.13-.62-5.34-6.35-5.1-9.82.88.48,1.77.37,2.08.12-2.19-.5-3.19-3.39-4.04-5.22-.07-.16,1.76.67,1.44.41-2.05-1.68-4.05-5.38-4.5-7.94,1.31-.29,3.06-.58,4.32.02-.18-.42-.54-.7-.88-.98.9.14,1.78.36,2.62.74,0,0-.02-.23-.2-.49-.18-.27-.33-.57-.33-.57,0,0,2.25,1.19,4.84.68,2.59-.51,6.34-2.5,10-4.72,3.66-2.22,4.35-2.7,4.35-2.7-.56.09-1.24-.2-1.7-.51,1.27,0,2.14-.21,3.33-.6-.6-.17-1.12-.44-1.39-1.03,2.68.17,4.44-1.64,6.17-3.44-.41.1-1.03-.02-1.33-.32,3.99-.78,5.61-4.44,6.8-8.09,4-12.24,14.71-19.06,26.86-13.14,5.16,2.51,8.43,8.11,8.8,11.07.38,2.96-.83,4.7-.83,4.7,0,0,.21,1.59.86,2.55,1.54,2.28,3.78,3.31,4.56,6.25-1.69-.81-5.44-1.45-7.35-1.38,1.2,1.52,2.48,3.06,3.52,4.69,0,0-4.04.55-5.75.04h0Zm-34.33,57.06c.73-1.01-.03-1.95-1.15-3.47-1.11-1.53-3.99-4.41-3.99-4.41,0,0,.62,1.67,2.47,4.83,1.84,3.16,2.67,3.06,2.67,3.06Z"/>
  <path class="cls-1" d="m243.89,96.34s1.19-7.99-3.91-9.18c0,0-.68-4.25-2.04-5.95,0,0,1.19-6.46-2.04-8.16-3.23-1.7-5.27-1.02-5.27,1.7,0,0-14.11-5.1-28.04,12.07-13.94,17.17-13.09,20.91-14.11,25.32-1.02,4.42-7.82,14.45-11.73,16.83-3.91,2.38-33.14,12.58-69.85,12.41,0,0-21.24-3.06-33.48-.68-12.24,2.38-15.64,1.19-19.71,1.53-4.08.34-14.79.85-11.05,7.48,0,0,5.27,8.5,12.75,13.43,0,0-.17,2.21,1.36,3.74,0,0-2.38,5.27,3.74,10.88,0,0-3.57,5.44,4.08,10.88,0,0,3.57,6.46,9.01,8.67,0,0,6.97,4.08,12.58,6.29,0,0,3.06,2.89,5.27,4.76,0,0-2.38,10.2,10.03,17.34,0,0,6.8,14.79,16.49,15.81,0,0,0,6.29,2.21,8.5,0,0,2.21,27.53,1.7,30.93,0,0-1.19,5.27-3.4,6.29,0,0-3.4,1.36-3.4,2.72l1.19.68s2.04,1.02,5.61-.51c0,0,2.38,4.76,4.93,5.61,2.55.85,6.8,4.93,6.97,7.14,0,0,3.91-.17,3.06-3.57,0,0-.68-2.89-2.38-3.74,0,0,.51-.68,2.72-.51,0,0,5.61.51,11.39.51,5.78,0,5.44,0,6.97-.51,0,0,2.55-.51,3.74-.51,0,0-.17-1.53-1.02-1.87,0,0-1.36-1.36-6.12-1.7-4.76-.34-9.69-1.02-13.09-1.02,0,0-5.44-1.19-8.16-1.19,0,0-2.04-27.19-1.87-31.1,0,0,12.07-4.25,15.81-12.75,0,0,1.53-1.53,2.04.51,0,0,2.55,5.44,5.1,7.31l-.34,5.61s.85.34,2.89,1.7c2.04,1.36,11.56,17.5,11.73,20.22,0,0,2.04,3.74-3.06,9.35,0,0-2.38,4.42-2.38,5.27l2.04-.34s4.08-1.53,5.1-3.74c1.02-2.21,2.55-3.06,2.55-2.55,0,.51,6.12,4.08,6.63,6.12,0,0,2.04,2.38,1.36,3.4,0,0,3.23-.51,3.06-4.59,0,0,0-1.7-.34-2.38,0,0,1.19-.17,3.57.51,0,0,3.57.85,5.1.68,1.53-.17,9.69.68,10.54,1.02.85.34,6.29,2.38,7.82.85,0,0,2.89-.68,3.57-.17,0,0-.68-1.7-2.89-2.04,0,0,.68-1.7-5.78-2.89-6.46-1.19-17.68-2.72-21.07-3.06,0,0-2.04-1.53-3.23-3.23-1.19-1.7-5.44-5.44-5.78-5.95-.34-.51-9.52-18.02-9.52-20.74,0,0,7.99-10.03,8.16-16.14,0,0,5.27-6.8,7.31-11.56,0,0,39.43-34.16,44.19-45.72,4.76-11.56,8.33-27.7,6.97-47.76-1.36-20.05-1.7-26.51-2.21-29.91,0,0,2.04-.85,2.38-2.89,0,0,4.93,4.93,6.97-6.46,0,0,5.78.17,6.63,1.02Z"/>
  <path class="cls-1" d="m305.75,152.73s0-3.07-3.28-4.92c0,0-1.03-4.1-4.92-5.53,0,0-4.1-5.94-13.53-.82-9.43,5.12-11.48,7.58-13.73,9.43s-11.27,14.96-17.22,21.52c-5.95,6.56-14.35,10.04-16.81,11.07-2.46,1.02-35.87,9.22-42.84,12.71,0,0-5.53,2.46-6.97-4.71,0,0-3.69-14.14-8.2-13.94,0,0-1.44,1.23,0,4.51,0,0-14.14-10.66-22.34-3.69,0,0-9.84-.21-8.4,6.35,0,0,2.25,2.66,5.53,2.05,0,0,.82,3.48,5.94,5.12,0,0-3.89.61-2.46,5.33,0,0-9.22-.61-9.02,2.87,0,0-1.23,2.25,4.3,5.12,0,0-4.71,4.1-2.05,5.74,0,0,4.51,2.66,9.02,2.46,0,0,2.05,1.84,4.1,1.84,0,0-12.71,8.2-.82,9.84,0,0-1.64,3.48.82,5.74,0,0-2.25,4.51,7.79,3.07,0,0,7.58,12.3,10.45,15.58,2.87,3.28,13.94,7.79,24.18,8.4,0,0,4.51,1.02,7.79,1.02,0,0,2.87,13.73,6.15,18.04,3.28,4.3.82,9.63,0,12.71,0,0-2.87,3.69-2.87,5.33,0,0,1.64.62,2.46-.62.82-1.23,3.08-2.46,3.69-4.3,0,0,1.64,0,1.64,2.05,0,0,1.23,5.33,3.07,5.94,1.85.62,8.61,1.03,11.89,1.03,0,0,2.46,2.05,2.66,4.1,0,0,2.66-2.46,1.02-5.12,0,0,3.89-.41,6.97-.41,0,0,2.66.61,3.48,1.02,0,0,1.23-3.28-4.3-4.51,0,0-7.99-1.02-12.3-1.02,0,0-5.12-1.03-7.38-5.53,0,0-4.92-12.71-6.35-18.45,0,0,.41-1.64,1.85-1.64,0,0,8.81,2.66,11.89,4.3,0,0,1.44,1.02-.62,3.89,0,0-3.07,3.07-3.99,6.25,0,0,.2,1.84.31,2.66,0,0,2.05-.92,3.48-4.3,0,0,.51-1.44,1.95-2.87,1.44-1.43,2.36-2.36,3.79-2.36,0,0,1.64,2.56,3.79,2.46,0,0,1.54,0,2.77.92,0,0,1.95,2.46,3.38,4.2,0,0,.72.82,1.85.82,0,0,2.46,1.23,2.46,2.05,0,0,.72-1.64.62-2.15-.1-.51,1.64,1.33,1.84,2.36.21,1.02.62,3.69,2.46,3.69,0,0,1.23.31,1.43,1.33,0,0,1.33-2.87.1-5.23-1.23-2.36-1.54-2.97-1.95-3.28,0,0-2.05-5.53-4.3-7.69-2.25-2.15-4.92-4.82-7.99-5.43,0,0-13.43-4.3-15.68-5.43,0,0,1.02-2.15,1.74-3.48,0,0,12.91,2.87,20.7-5.33,0,0,11.79-20.8,15.99-32.18,0,0,7.58-14.24,8.5-16.29.92-2.05,8.2-19.57,8.71-30.23.51-10.66,2.25-15.06,2.36-16.81,0,0,2.25-.82,2.46-1.64,0,0,.72,1.54,1.02,1.33,0,0,4.61-4.1,5.43-6.46,0,0,1.84.31,2.77.2.92-.1,2.97.21,3.69-.1Z"/>
</svg>