<?xml version="1.0" encoding="UTF-8"?>
<svg id="Layer_2" data-name="Layer 2" xmlns="http://www.w3.org/2000/svg" viewBox="0 0 498.81 498.81">
  <defs>
    <style>
      .cls-1 {
        fill: #fff;
      }

      .cls-2 {
        fill: #ced20b;
      }
    </style>
  </defs>
  <path class="cls-2" d="m173.9,0h151c50.08,0,75.11,0,102.06,8.52,29.43,10.71,52.61,33.89,63.32,63.32,8.52,26.95,8.52,51.99,8.52,102.06v151c0,50.08,0,75.11-8.52,102.06-10.71,29.43-33.89,52.61-63.32,63.32-26.95,8.53-51.99,8.53-102.06,8.53h-151c-50.08,0-75.12,0-102.06-8.53-29.43-10.71-52.61-33.89-63.32-63.32C0,400.01,0,374.98,0,324.91v-151c0-50.08,0-75.11,8.52-102.06,10.71-29.43,33.89-52.61,63.32-63.32C98.79,0,123.83,0,173.9,0h0Z"/>
  <path class="cls-1" d="m162.94,335.71c-5.5-13.04-7.56-26.47-5.2-40.66,2.33-14.02,8.34-26.15,17.32-37.04-13.36,6.53-23.62,16.36-30.97,29.16-7.45,12.97-10.51,27.04-9.58,42.17-6.72-8.01-10.07-14.81-12.88-22.11-3.1-8.07-4.69-16.49-4.97-25.14-.29-8.71.8-17.29,3.37-25.61,2.52-8.15,6.22-15.79,11.39-22.88-4.99.55-20.14,20.25-24.32,30.64-5.09,12.68-6.93,25.73-5.27,39.31-.15.06-.31.13-.46.19-1.23-1.48-2.48-2.94-3.67-4.46-4.35-5.55-8-11.54-11.02-17.9-2.74-5.78-4.87-11.79-6.41-18-2.42-9.73-3.29-19.59-2.7-29.6.48-8.06,2.01-15.9,4.4-23.63,2.16-7.01,5.12-13.66,8.83-19.92,4.47-7.53,9.71-14.56,16.29-20.43,4.23-3.77,8.47-7.59,13.11-10.81,6.49-4.52,13.54-8.14,21.06-10.74,3.67-1.27,7.33-2.68,11.11-3.48,6.05-1.28,12.18-2.36,18.39-2.29,5.63.06,11.27.37,16.89.8,3.32.25,6.68.63,9.88,1.48,4.77,1.26,9.51,2.78,14.11,4.57,6.67,2.61,12.9,6.09,18.63,10.43,7.15,5.41,13.15,11.81,17.57,19.66,5.45,9.67,7.65,20,6.33,31.01-.53,4.42-1.65,8.73-3.35,12.89-2.65,6.48-6.84,11.97-10.86,17.59-2.11,2.96-4.4,5.93-5.76,9.24-2.31,5.66-1.14,11.42,4.39,15.08,2.31,1.53,5.09,2.36,7.71,3.39,1.56.62,2.95-.1,4.15-1.06,6.25-5.03,12.62-9.93,18.66-15.19,6.62-5.77,12.61-12.19,17.42-19.58,3.43-5.28,6-10.97,7.43-17.16.64-2.75,1.59-5.43,2.18-8.19,1.15-5.38,2.13-10.8,3.2-16.2.87-4.38,1.8-8.74,2.68-13.12.57-2.83,1-5.7,1.65-8.51.65-2.8,1.41-5.58,2.3-8.31,1.52-4.69,2.89-9.46,4.84-13.97,3.69-8.51,9.06-15.81,17.24-20.58,3.69-2.15,7.57-3.99,11.89-4.63.5-.07.93-.55,1.4-.84-.06-.19-.12-.38-.19-.57-2.22.32-4.42.76-6.65.94-4.32.36-8.66.89-12.97.76-5.54-.17-10.38-2.6-14.67-6.03-3.04-2.43-5.45-5.45-7.15-8.94-1.91-3.94-3.13-8.11-3.09-12.54.05-5.84,1.86-11.16,5.13-15.98,1.89-2.79,4.21-5.17,7.25-7.06-1.03,7.44.82,13.64,6.97,18.76.32-4.28,1.51-7.75,3.61-10.88,2.09-3.12,4.8-5.53,8.43-7.23-.68,8.51,2.12,15.2,8.98,20.39,1.24-6.77,4.42-11.79,10.74-15.17-1.36,5.61-.37,10.52,2.36,15.02,1.06,1.75,2.59,3.21,4.02,4.93,1.33-2.77,2.32-5.22,3.65-7.48,1.32-2.24,3.16-4.06,5.85-5.12-1.92,6.03.61,14.58,5.91,17.97,1.89-1.6,3.75-3.17,5.91-5,0,2.42-.12,4.34.03,6.24.28,3.69,2.44,6.48,4.66,9.23,2.32,2.88,4.9,5.61,6.8,8.75,1.56,2.59,2.43,5.54,2.62,8.77.23,3.89-1.61,7.08-2.56,10.55-.33,1.21-1.64,2.14-2.49,3.21-.23.29-.43.61-.59.85,2.65,1.94,5.96,2.72,8.17,5.68-4.06,1.17-7.83,2.26-11.8,3.41.23.41.46,1.01.85,1.47,2.43,2.92,5.09,5.67,7.32,8.74,4.12,5.68,6.61,11.96,5.54,19.17-.84,5.63-4.18,9.12-9.37,11.26-6.46,2.65-15.08-.32-18.55-5.62-3.25-4.96-3.03-10.07-.45-15.22.16-.33.35-.64.52-.97-.16-.12-.32-.25-.49-.37-.77.93-1.66,1.79-2.28,2.81-2.51,4.14-3.07,8.61-1.56,13.19,1.42,4.31,4.42,7.52,8.01,10.15,4.49,3.29,9.18,6.33,13.57,9.75,5.22,4.07,9.53,8.97,12.85,14.78,2.32,4.05,4.07,8.3,5.2,12.77,1.98,7.86,2.56,15.88,1.94,23.96-.24,3.05-.77,6.08-1.12,9.13-.64,5.59-2.58,10.8-4.53,16.01-2.26,6.02-5.33,11.67-8.9,16.95-6.42,9.47-13.94,18.04-22.54,25.62-5.23,4.61-10.53,9.15-15.96,13.51-3.96,3.18-8.17,6.02-12.29,9-3.63,2.63-7.24,5.3-10.93,7.84-4.4,3.04-8.91,5.91-13.3,8.95-3.05,2.11-6.01,4.35-8.97,6.59-3.84,2.91-7.86,5.62-11.38,8.87-3.93,3.63-7.49,7.66-11,11.71-2.27,2.62-4.42,5.43-6.11,8.44-2.88,5.1-5.49,10.36-7.94,15.68-1.51,3.28-2.54,6.79-3.89,10.5-.07-.66-.15-1.05-.15-1.44,0-5.54-.11-11.09.05-16.63.09-3.23.54-6.46.96-9.68.54-4.15,1.33-8.26,1.79-12.42.27-2.41,2.01-3.48,3.57-4.75,4.79-3.91,9.85-7.44,15.35-10.3.38-.2.68-.54,1.07-.86-3.25-.37-19.76,6.9-30.15,14.68-9.18,6.87-17.08,14.89-23.64,24.27-6.53,9.32-11.25,19.5-14.83,30.38-.06-.51-.15-1.02-.17-1.53-.45-9.25-.05-18.47,1.2-27.63.71-5.24,1.78-10.43,2.68-15.65,1.24-7.25,3.57-14.2,5.97-21.11.73-2.09.36-2.81-1.33-4.09-9.46-7.17-18.23-15.08-25.98-24.15-6.25-7.32-11.69-15.16-16.12-23.67-1.94-3.72-3.39-7.69-4.99-11.57-.44-1.07-.66-1.55-2-.85-9.39,4.94-13.89,12.89-14.83,23.25Z"/>
</svg>