<?xml version="1.0" encoding="UTF-8"?>
<svg xmlns="http://www.w3.org/2000/svg" xmlns:xlink="http://www.w3.org/1999/xlink" version="1.1" id="Laag_1" x="0px" y="0px" viewBox="0 0 300 300" style="enable-background:new 0 0 300 300;" xml:space="preserve">
<style type="text/css">
	.st0{fill:#808022;}
</style>
<g>
	<path class="st0" d="M293.4,244.43H10.12c-3.52,0-7.04,2.35-7.04,3.82c0,3.82,3.52,5.58,7.04,5.58H293.4   c2.05,0,3.52-1.76,3.52-5.58C296.92,246.78,295.45,244.43,293.4,244.43z"></path>
	<path class="st0" d="M38.3,213.31c12.91,0,24.65-12.62,24.65-24.95c0-4.4-0.88-8.22-2.34-10.57l43.15-33.17   c3.23,2.64,8.51,6.46,16.73,6.46c3.52,0,10.57-3.82,14.09-6.46l41.09,33.17c-4.7,3.23-5.57,7.63-5.57,11.45   c0,12.62,13.21,25.83,25.83,25.83c12.04,0,25.24-13.21,25.24-25.83c0-6.16-3.82-11.45-7.34-17.61l36.98-72.51   c2.06,0.88,7.05,2.94,12.33,2.94c14.68,0,25.24-11.75,25.24-24.95c0-13.5-10.56-26.13-25.24-26.13   c-12.33,0-25.24,12.62-25.24,26.13c0,5.28,4.11,9.98,4.4,14.09l-38.75,75.44c-2.06-1.47-4.4-1.47-7.63-1.47   c-5.28,0-12.33,1.47-15.26,4.4l-40.22-33.17c2.06-4.7,3.52-7.33,3.52-12.32c0-13.5-10.86-24.07-23.48-24.07   c-14.39,0-26.13,10.57-26.13,24.07c0,4.99,1.17,7.63,4.11,12.32l-44.91,33.17c-4.7-4.4-8.51-8.22-15.26-8.22   c-14.97,0-25.54,13.5-25.54,27C12.77,200.7,23.33,213.31,38.3,213.31z"></path>
	<path class="st0" d="M183.61,80.63c10.27,0,17.9-7.63,17.9-17.03c0-9.39-7.63-16.44-17.9-16.44c-7.93,0-16.15,7.05-16.15,16.44   C167.46,73,175.68,80.63,183.61,80.63z"></path>
	<path class="st0" d="M99.65,197.47c0,10.56,7.34,17.61,17.03,17.61c10.86,0,17.91-7.05,17.91-17.61c0-11.16-7.05-19.67-17.91-19.67   C106.99,177.8,99.65,186.31,99.65,197.47z"></path>
	<path class="st0" d="M266.97,145.51c-11.45,0-20.55,7.05-20.55,15.85c0,12.62,9.1,19.66,20.55,19.66c7.34,0,16.15-7.05,16.15-19.66   C283.12,152.55,274.31,145.51,266.97,145.51z"></path>
</g>
</svg>
