<?xml version="1.0" encoding="UTF-8"?>
<svg xmlns="http://www.w3.org/2000/svg" xmlns:xlink="http://www.w3.org/1999/xlink" version="1.1" id="Laag_1" x="0px" y="0px" viewBox="0 0 300 300" style="enable-background:new 0 0 300 300;" xml:space="preserve">
<style type="text/css">
	.st0{fill:#808022;}
</style>
<g>
	<path class="st0" d="M128.22,126.34c-32.31,0-58.59-26.28-58.59-58.58c0-32.31,26.28-58.61,58.59-58.61   c32.29,0,58.57,26.3,58.57,58.61C186.79,100.05,160.5,126.34,128.22,126.34L128.22,126.34z"></path>
	<path class="st0" d="M128.22,9.58c32.08,0,58.16,26.1,58.16,58.18c0,32.08-26.08,58.18-58.16,58.18   c-32.09,0-58.17-26.09-58.17-58.18C70.05,35.67,96.12,9.58,128.22,9.58z"></path>
	<path class="st0" d="M128.22,10.01c31.86,0,57.76,25.89,57.76,57.75c0,31.86-25.9,57.75-57.76,57.75   c-31.85,0-57.75-25.89-57.75-57.75C70.46,35.89,96.36,10.01,128.22,10.01z"></path>
	<path class="st0" d="M128.22,10.41c31.65,0,57.34,25.7,57.34,57.35c0,31.64-25.69,57.34-57.34,57.34   c-31.64,0-57.34-25.7-57.34-57.34C70.88,36.11,96.57,10.41,128.22,10.41z"></path>
	<path class="st0" d="M128.22,10.82c31.43,0,56.91,25.51,56.91,56.94c0,31.41-25.48,56.92-56.91,56.92   c-31.42,0-56.93-25.51-56.93-56.92C71.28,36.34,96.8,10.82,128.22,10.82z"></path>
	<path class="st0" d="M128.22,11.24c31.19,0,56.52,25.31,56.52,56.52c0,31.19-25.32,56.5-56.52,56.5   c-31.21,0-56.51-25.31-56.51-56.5C71.71,36.55,97.01,11.24,128.22,11.24z"></path>
	<path class="st0" d="M184.32,67.76c0,30.97-25.11,56.09-56.1,56.09c-30.98,0-56.08-25.12-56.08-56.09c0-31,25.11-56.1,56.08-56.1   C159.2,11.66,184.32,36.76,184.32,67.76z"></path>
</g>
<path class="st0" d="M169.42,40.58c0.73,0.34,1.61,0.02,2.41,0.05c-9.17-14.47-25.27-24.11-43.61-24.11  c-28.46,0-51.64,23.16-51.64,51.63c0,13.98,5.61,26.66,14.64,35.96C85.74,57.22,128.22,20.68,169.42,40.58z"></path>
<g>
	<path class="st0" d="M126.48,14.08c-37.59,1.18-56.34,39.1-50.76,60.62c4,22.83,17.92,30.84,17.04,30.98   c0.8-0.07-11.8-9.17-14.38-30.86c-4.11-20.64,14.01-54.38,48.28-55.52c33.69-1.36,53.95,30.98,51.59,51.85   c-0.82,22.07-13.17,32.12-12.27,32.2c-1-0.17,12.35-8.66,14.85-31.59C185.18,50.48,164.86,12.83,126.48,14.08z"></path>
</g>
<g>
	<path class="st0" d="M154.56,217.44c0-32.8,26.18-59.47,58.78-60.29c-13.33-21.55-29.44-32.59-30.64-33.41l-0.52-0.37l-29.72-10.13   l-47.43-0.12l-29.75,10l-0.54,0.35c-2.18,1.43-53.43,36.24-48.66,106.66c3.3,37.7,61.8,47.2,87,49.55   c0.41,0.03,9.42,0.49,15.05,0.52h0.27c5.65,0,14.79-0.41,15.39-0.44c10.76-0.95,27.74-3.21,43.88-8.48   C168.04,261.33,154.56,240.97,154.56,217.44z"></path>
</g>
<g>
	<path class="st0" d="M214.89,157.11c33.32,0,60.33,27.01,60.33,60.33s-27.01,60.33-60.33,60.33s-60.33-27.01-60.33-60.33   S181.57,157.11,214.89,157.11 M214.89,148.11c-38.23,0-69.33,31.1-69.33,69.33s31.1,69.33,69.33,69.33s69.33-31.1,69.33-69.33   S253.12,148.11,214.89,148.11L214.89,148.11z"></path>
</g>
<path class="st0" d="M253.26,186.6c-1.5-2.76-4.38-4.47-7.52-4.47c-2.9,0-5.58,1.45-7.17,3.89l-33.61,51.64l-10.91-17.41  c-1.57-2.51-4.28-4.01-7.25-4.01h-0.28c-3.14,0-6.02,1.71-7.51,4.47c-1.5,2.76-1.37,6.1,0.34,8.74l14.37,22.14  c2.5,3.85,6.72,6.14,11.31,6.14c4.58,0,8.8-2.29,11.3-6.13l36.6-56.26C254.62,192.71,254.75,189.36,253.26,186.6z"></path>
</svg>
