<?xml version="1.0" encoding="UTF-8"?>
<svg id="Layer_2" data-name="Layer 2" xmlns="http://www.w3.org/2000/svg" viewBox="0 0 360.6 360.6">
  <defs>
    <style>
      .cls-1 {
        fill: #fff;
      }

      .cls-2 {
        fill: #ced20b;
      }

      .cls-3 {
        fill: none;
      }
    </style>
  </defs>
  <path class="cls-2" d="m125.72,0h109.16c36.2,0,54.3,0,73.78,6.16,21.28,7.74,38.03,24.5,45.78,45.78,6.16,19.48,6.16,37.58,6.16,73.78v109.16c0,36.2,0,54.3-6.16,73.78-7.74,21.28-24.5,38.03-45.78,45.77-19.49,6.16-37.58,6.16-73.78,6.16h-109.16c-36.2,0-54.3,0-73.78-6.16-21.28-7.74-38.03-24.5-45.77-45.77C0,289.18,0,271.08,0,234.88v-109.16c0-36.2,0-54.3,6.16-73.78C13.9,30.66,30.66,13.91,51.93,6.16,71.42,0,89.52,0,125.72,0h0Z"/>
  <path class="cls-3" d="m154.32,213.76c6.14,0,11.12-7.89,11.12-17.64s-4.98-17.63-11.12-17.63-11.12,7.89-11.12,17.63,4.98,17.64,11.12,17.64Z"/>
  <path class="cls-3" d="m225.64,213c6.14,0,11.12-7.89,11.12-17.64s-4.98-17.64-11.12-17.64-11.12,7.89-11.12,17.64,4.98,17.64,11.12,17.64Z"/>
  <path class="cls-3" d="m215.26,236.03c-9.59-4.16-14.56-16.96-26.05-16.12l-1.53.76c-8.24-4.08-17.24,15.74-24.54,19.17-7.97,3.75-28.99,1.28-18.23,15.34,5.95,7.77,17.52,12.79,25.16,18.96,9.53,7.72,13.53,17.08,20.51,26.23,1.89-11.15,12.37-21.16,20.86-28.3,7.32-6.15,24.43-10.69,27.66-19.92,5.43-15.47-15.88-12.67-23.83-16.12Z"/>
  <g>
    <path class="cls-1" d="m294.49,230.18c-2.53,2.92-4.93,5.94-7.63,8.75-6.05,6.32-13.38,11.46-21.42,15.9-.38.21-.94.28-1.42.28-20.38-.13-40.76-.36-61.14-.39-23.95-.04-47.9.08-71.85.17-11.49.04-22.98.17-34.47.24-.47,0-1.01-.11-1.4-.32-11.09-6.16-20.51-13.76-27.79-23.17-.42-.54-.77-1.11-1.27-1.83.75-.03,1.31-.07,1.87-.07,10.33-.07,20.65-.19,30.98-.21,37.81-.05,75.62-.11,113.43-.09,25.62.01,51.24.14,76.86.22,1.75,0,3.49.08,5.24.13v.39Z"/>
    <path class="cls-1" d="m102.55,260.84v-3.4h155.6v3.4H102.55Z"/>
    <path class="cls-1" d="m169.84,132.21c-.47.4-.9.85-1.43,1.18-1.33.8-2.77,1.46-4.04,2.31-1.23.83-2.41,1.74-3.41,2.76-.88.9-.97,2.04-.41,3.16.41.81,1.07,1.1,2.04.68.58-.26,1.19-.5,1.71-.84,6.34-4.14,13.66-6,21.49-6.84,9.24-.99,18.43-2.22,27.31-4.7,5.76-1.61,11.4-3.48,15.85-7.17,3.88-3.22,7.01-6.9,8.27-11.41.75-2.65.83-5.45,1.12-8.18.43-4,3.59-7.33,7.96-8.29,4.98-1.09,10.73,1.2,12.55,5.24.61,1.35.47,2.95.61,4.44.06.61-.07,1.23-.12,2.02.76-.06,1.43-.1,2.1-.17,5.37-.56,10.22,2.14,11.76,6.55,1.47,4.2-.83,8.56-5.57,10.55-1.93.81-4.02.86-6.13.93-10.27.36-18.38,4.14-24.25,11.22-2.46,2.97-3.84,6.41-5.18,9.83-2.69,6.86-4.25,13.93-5.37,21.08-.85,5.43-1.96,10.82-5.03,15.74-5.44,8.72-14.14,13.89-25.33,16.2-10.77,2.22-20.66.27-29.87-4.72-1.52-.83-3.11-1.61-4.78-2.17-1.64-.55-3.06.12-3.84,1.45-.74,1.27-.19,2.38.88,3.2,1.72,1.31,3.5,2.62,5.46,3.64,26.08,13.47,61.97,1.5,68.1-25.37,1.5-6.58,2.64-13.23,3.94-19.84.05-.25.14-.48.28-.96,1.74,1.72,3.37,3.25,4.89,4.85,7.18,7.57,12.06,16.08,14.25,25.6,1.32,5.75,1.32,11.6.96,17.43-.21,3.54-.79,7.03-1.95,10.45-1.99,5.81-6.43,9.57-13.2,11.45-5.24,1.45-10.65,2.19-16.12,2.32-13.07.31-26.15.53-39.23.56-18.52.05-37.03-.07-55.55-.18-7.69-.05-15.36-.45-22.89-1.92-6.5-1.27-12.03-3.8-15.71-8.71-2.33-3.11-3.52-6.56-4.02-10.16-1.05-7.55-1.05-15.12.75-22.59,2.01-8.38,6.34-15.93,12.46-22.7,12.25-13.55,28.52-21.9,47.97-26.05,5.77-1.23,11.65-1.91,17.57-2.31.97-.07,1.96,0,2.94,0,.06.15.13.31.19.46Z"/>
  </g>
</svg>