<?xml version="1.0" encoding="UTF-8"?>
<svg id="Layer_2" data-name="Layer 2" xmlns="http://www.w3.org/2000/svg" viewBox="0 0 399.81 399.8">
  <defs>
    <style>
      .cls-1 {
        fill: #fff;
        stroke: #fff;
        stroke-width: 10px;
      }

      .cls-1, .cls-2, .cls-3 {
        stroke-miterlimit: 10;
      }

      .cls-2 {
        fill: #ced20c;
        stroke: #ced206;
      }

      .cls-3 {
        fill: none;
        stroke: #d9d13d;
        stroke-width: 6px;
      }
    </style>
  </defs>
  <path class="cls-2" d="m399.31,139.53v120.74c0,40.01,0,60.03-6.81,81.62-8.59,23.51-27.12,42.06-50.64,50.61-19.54,6.18-37.85,6.74-70.97,6.77-3.39.03-6.89.03-10.61.03h-120.72c-40.07,0-60.08,0-81.62-6.81-23.52-8.55-42.07-27.1-50.66-50.61-6.79-21.59-6.79-41.6-6.79-81.62v-120.74c0-40.01,0-60.03,6.79-81.58C15.87,34.41,34.42,15.89,57.95,7.31,79.48.5,99.5.5,139.56.5h120.72c40.03,0,60.03,0,81.58,6.81,23.52,8.59,42.06,27.1,50.64,50.64,6.81,21.55,6.81,41.57,6.81,81.58Z"/>
  <path class="cls-1" d="m332.71,279.27c-2.61,1.5-5.02.99-17.03-1.93-36.21-8.82-34.88-9.31-38.79-9.57-21.27-1.45-12.49,22.39-40.46,25.72-6.73.79-28.85.92-43.53-13.25-4.8-4.66-17.2-12.95-20.11-12.46-6.63,1.11-1.22,24.8-14.2,45.05-7.19,11.21-21.53,23.76-37.86,22.99-13.1-.6-22.31-9.54-30.28-17.25-2.11-2.05-8.38-11.94-20.81-31.63-6.93-10.98-10.36-16.56-8.52-21.08,2.04-5.01,7.78-4.52,14.2-11.51,4.36-4.75,5.97-9.63,7.58-14.38,8.19-24.35,5.89-25.27,8.75-31.87,7.01-16.24,19.46-33.39,29.82-43.6,9.62-9.52,19.29-19.11,35.01-25.88,11.49-4.96,25.37-9.7,45.13-11.88-.44-6.4-.48-12.28-2.56-15.28-7.08-10.31-27.19-1.03-35.03-9.07-3.93-4.04-6.95-16.99-1.19-16.97,75.43.11,45.4,1.84,75.43.11.57-.04,3.54,7.26.78,12.95-3.41,7.04-12.16,4.6-16.62,10.38-3.78,4.9-1.76,12.18.8,19.33,9.25,2.2,18.09,5.52,23.78,6.25.57.08,14.71,4.45,39.6,19.26,32.39,19.26,39.84,49.03,44.24,62.3,6.47,19.58,14.08,56.26,1.89,63.28Z"/>
  <line class="cls-3" x1="119.62" y1="276.69" x2="106.63" y2="287.01"/>
  <line class="cls-3" x1="106.63" y1="276.69" x2="119.62" y2="287.01"/>
</svg>