<?xml version="1.0" encoding="UTF-8"?>
<svg id="Layer_2" data-name="Layer 2" xmlns="http://www.w3.org/2000/svg" viewBox="0 0 366.08 366.08">
  <defs>
    <style>
      .cls-1 {
        fill: #fff;
        fill-rule: evenodd;
      }

      .cls-2 {
        fill: #ced20b;
      }

      .cls-3 {
        fill: none;
      }
    </style>
  </defs>
  <path class="cls-2" d="m127.63,0h110.82c36.75,0,55.12,0,74.9,6.26,21.6,7.86,38.61,24.87,46.47,46.47,6.25,19.78,6.25,38.15,6.25,74.9v110.82c0,36.75,0,55.12-6.25,74.91-7.86,21.6-24.87,38.61-46.47,46.47-19.78,6.26-38.15,6.26-74.9,6.26h-110.82c-36.75,0-55.13,0-74.91-6.26-21.6-7.86-38.61-24.87-46.47-46.47C0,293.57,0,275.2,0,238.45v-110.82c0-36.75,0-55.13,6.26-74.9C14.11,31.13,31.12,14.12,52.72,6.26,72.5,0,90.88,0,127.63,0h0Z"/>
  <path class="cls-3" d="m156.67,217.01c6.24,0,11.29-8.01,11.29-17.91s-5.06-17.9-11.29-17.9-11.29,8.01-11.29,17.9,5.05,17.91,11.29,17.91Z"/>
  <path class="cls-3" d="m229.07,216.24c6.24,0,11.29-8.01,11.29-17.91s-5.05-17.91-11.29-17.91-11.29,8.01-11.29,17.91,5.06,17.91,11.29,17.91Z"/>
  <path class="cls-3" d="m218.53,239.61c-9.73-4.22-14.78-17.22-26.45-16.37l-1.55.78c-8.37-4.14-17.5,15.97-24.91,19.46-8.09,3.81-29.43,1.3-18.51,15.57,6.04,7.89,17.79,12.98,25.54,19.25,9.68,7.84,13.73,17.34,20.82,26.63,1.92-11.31,12.56-21.49,21.17-28.73,7.43-6.25,24.8-10.85,28.08-20.22,5.51-15.71-16.12-12.87-24.19-16.36Z"/>
  <path class="cls-1" d="m227.16,90.04c12.77-.61,21.42,4.06,26.65,14.77l13.62.44-10.63,8.88c.29,1.76.45,3.55.45,5.37,0,20.17-18.4,23.18-17.74,50.53.78,32.22-23.61,46.81-49.64,48.28,1.23,7.33,13.48,18.17,18.79,24.61,9.39,10.34,32.24,2.03,36.06,11.61-4.41-2.29-6.88.14-10.31.2-16.07.32-38.07-2.41-54.72-.81,9.8,2.84,25.02-.39,25.68,6.99-3.7-2.3-6.92.14-10.37.21-19.22.37-45.49-3.54-63.68.6,5.77-12.52,15.96-5.67,25.11-6.52,13.09-1.22-3.45-23.64-6.85-30.81l6.76-10.88c-24.52-9.11-28.02-29.09-29.28-52.55-.38-7.19-6.98-12.73-11.23-18.24,0,0,2.76,1.15,6.32,2.59-1.36-3.15-2.63-6.46-3.17-10.41,5.41,5.24,18.84,9.32,29.47,7.65,25.2-3.97,54.87,7.34,53.67-18.19-1.2-25.61,12.24-33.69,25.01-34.3h0Zm-49.46,128.01l-.6-.05c-3.6-.37-6.92-.88-10.02-1.51l-3.91,4.86c-5.58,6.93,5.88,20.44,9.75,27.94.11.19.24.37.37.55,4.43-4.57,13.67-.36,20.75-1.04,12.67-1.21-10.62-23.49-16.33-30.74h0Zm55.29-116.06c3.31,0,5.99,2.73,5.99,6.1s-2.68,6.1-5.99,6.1-5.99-2.73-5.99-6.1,2.68-6.1,5.99-6.1h0Zm-101.7,142.86c-2.81,3.95-5.8,7.63-8.94,10.89-42,43.58-104.21-16.36-62.22-59.95,7.08-7.35,16.3-14.06,26.16-19.52,2.82,8.42,4.6,13.84,4.6,13.84l19.49,13.49,1.5,23.99,19.41,17.26h0Zm178.5,6.73c12.47-12.02,2.11-51.45-16.78-78.08l-19.42,17.26-1.5,23.99-19.49,13.49s-1.78,5.42-4.59,13.84c23.93,13.27,51.64,19.26,61.79,9.49h0Z"/>
</svg>