<?xml version="1.0" encoding="UTF-8"?>
<svg id="Layer_2" data-name="Layer 2" xmlns="http://www.w3.org/2000/svg" viewBox="0 0 392.37 392.38">
  <defs>
    <style>
      .cls-1, .cls-2 {
        fill: #fff;
      }

      .cls-2 {
        fill-rule: evenodd;
      }

      .cls-3 {
        fill: #ced20b;
      }

      .cls-4 {
        fill: none;
      }
    </style>
  </defs>
  <path class="cls-3" d="m136.8,0h118.78c39.39,0,59.08,0,80.29,6.71,23.15,8.43,41.38,26.66,49.81,49.81,6.7,21.2,6.7,40.89,6.7,80.29v118.78c0,39.39,0,59.08-6.7,80.29-8.43,23.15-26.66,41.38-49.81,49.81-21.2,6.71-40.89,6.71-80.29,6.71h-118.78c-39.39,0-59.09,0-80.29-6.71-23.15-8.42-41.38-26.66-49.81-49.81C0,314.66,0,294.97,0,255.58v-118.78c0-39.39,0-59.09,6.71-80.29C15.13,33.36,33.36,15.13,56.51,6.71,77.71,0,97.41,0,136.8,0h0Z"/>
  <path class="cls-4" d="m167.92,232.6c6.68,0,12.1-8.59,12.1-19.19s-5.42-19.19-12.1-19.19-12.1,8.58-12.1,19.19,5.42,19.19,12.1,19.19Z"/>
  <path class="cls-4" d="m245.52,231.77c6.68,0,12.1-8.59,12.1-19.19s-5.42-19.19-12.1-19.19-12.1,8.59-12.1,19.19,5.42,19.19,12.1,19.19Z"/>
  <path class="cls-4" d="m234.23,256.82c-10.43-4.52-15.84-18.46-28.35-17.55l-1.67.83c-8.97-4.44-18.76,17.12-26.7,20.86-8.67,4.08-31.55,1.39-19.84,16.69,6.47,8.46,19.07,13.91,27.37,20.63,10.37,8.4,14.72,18.58,22.32,28.54,2.06-12.13,13.46-23.03,22.69-30.8,7.96-6.69,26.58-11.63,30.1-21.67,5.91-16.84-17.28-13.79-25.93-17.54Z"/>
  <path class="cls-2" d="m95.74,295.89c-14.5-20.39-12.21-58.39,7.78-76.51,8.71-7.89,20.16-9.22,28.43-2.32,24.81,20.73,28.83,66.81,6.52,85.08-12.95,10.6-33.32,6.97-42.72-6.25Z"/>
  <path class="cls-1" d="m293.58,85.05c0-1.07-.35-1.79-.35-2.5h-.72c-.72-.36-1.08-.36-1.78-.72v-1.43c-.72-.36-1.08-.36-1.79-.72h0v-.35c-.36,0-.36-.72-.71-1.07-.36-.36-.36-.71-.36-1.07-.36,0-.71,0-.71-.36h-2.16v-.36c-.34-.35-.34-.72-.34-.72v-1.07h-3.22l-.35-.36c-1.08-1.07-1.43-1.43-2.85-1.07-.36.36-.72.71-1.43.71-.72.72-1.07,1.43-1.79,2.15h-.71s-.36,0-.36-.36h-.36s-.35,0-.35-.36v-.35l-.36-.36s-.36,0-.71-.36h-.36c-.36.36-.71.36-.71.36l-.37.36v3.22h-.72c0,.36-.35.36-.71.36s-.36.35-.36.72h-.35v1.78c-5.01,2.14-9.29,5.71-12.86,10.36-7.5,9.29-12.15,19.29-13.92,30.72v.35c-.72,0-1.07.36-1.43.72-1.43.71-3.22,1.78-5,2.5-5.72,3.21-10.01,7.14-13.22,12.14-1.07.71-2.14,2.14-3.21,2.86-2.14-.72-5-.72-7.5-.72-5.35-.72-10,.35-13.93,3.57-.72,0-1.07-.36-1.78-.36h-1.78c-1.43-.72-2.86-1.43-4.29-2.15h-.71v.36q0,.36-.36.36h0s0,.35.36.72v1.07h.35v.36c-6.08-.36-11.08-2.5-15.35-7.15-.72-1.07-1.43-2.15-2.5-3.22-8.58-13.22-20-23.57-33.93-30-1.07-.35-2.14-.72-3.22-.72-3.22,0-6.43.37-9.29.72-2.86.72-5.01,1.78-6.43,3.93v.36c-.36.36-.36.72-.36,1.07-.35.36-.35.72-.35.72-.35.72-.72,1.78-1.78,2.14v5c-1.07.36-2.14,1.07-2.5,2.5-.36,2.5.36,4.64,1.78,6.43-1.42,0-2.51.35-3.22,1.78h-1.07c-.36.36-.72.72-1.07,1.07v7.86c.35.35.71.72.71,1.07s0,.72.36.72v.35q-.36,0-.72.36c0,.36-.35.72-.72,1.07-1.78,2.5-2.14,5.36-1.78,8.57,0,.36.35.36.35.36,0,.35.36.35.36.72v.35c-.36.36-.36.72-.36.72.36.36.72.72.72,1.07.71,1.43.71,2.86.71,4.29.36.35.36.72.36,1.07v2.14c1.07,2.14,1.78,3.57,3.21,5-.36.36-.71.72-1.07.72-.36.36-.71.36-1.07.72v2.85h0c.71,2.5,1.78,4.65,3.93,6.43h.35c.35.37.35.72.72.72-.36.72-.36,1.79-.36,2.14,1.07.72,1.79,1.78,2.15,2.86,1.07,2.86,2.5,4.64,4.65,5.36v2.15c2.5,2.5,4.64,5,7.5,7.14v.72c-.36.35,0,1.07,0,1.42q.35.36.71.72c4.66,2.5,8.57,5.72,11.79,8.93,0,.36-.36.72-.36.72l-.35.35c0,.36-.35.72,0,1.44,0,.72.35,1.78.72,2.5,2.85,2.5,5.36,3.22,8.21,2.5,0,3.92.36,8.21,1.79,12.49.36,1.79,1.43,3.58,2.5,5,3.57,9.65,11.43,17.86,23.21,25.36v.36c-.35,0-.35.36-.35.36,1.78,2.14,3.58,3.22,5.72,3.93,0,.71.36,1.43.72,2.5.35,1.43.72,2.86.72,4.29,0,5.36-3.22,9.29-8.57,11.78-3.22,1.44-5.36,3.57-5.72,6.79,0,1.43.72,2.14,1.79,2.5.72,0,1.07-.36,1.07-.72,0-.72.36-1.43.36-1.79,4.28-2.14,8.57-1.79,13.22,1.07,1.78,1.07,3.57,2.14,5.72,2.86,5.36,2.14,8.93,5.36,11.42,10,.35.71.72,1.43.72,1.78l-1.43,2.5c1.79.72,3.22-.36,4.29-2.85.35-1.07,0-2.5-.36-3.58-1.07-2.5-2.5-4.64-3.93-6.78,1.07-1.07,2.86-1.07,5.36,0,1.78.72,3.22,2.14,3.93,3.93-3.22,3.57-4.65,7.5-3.93,11.79,2.14-2.15,4.29-3.93,6.43-6.07,1.43-1.07,2.84-2.15,4.64-2.5,4.29-1.08,8.22-.37,12.15,1.78,5,2.85,10.35,5.72,15.35,8.57v3.57h3.22l1.78-2.14c.36-3.57-1.43-6.07-5.35-7.5-2.15-1.07-4.28-1.78-6.42-2.85,6.42-3.93,13.21-3.93,20.71,0l2.14,3.21c2.51-3.21,1.79-5.72-2.14-7.5-1.78-.71-3.21-1.07-5-1.43-7.86-1.44-15.71-2.5-23.93-3.22-6.78-.35-10.72-3.92-11.43-10.71-.71-3.93-.71-7.86-.35-12.14,11.08-5,19.65-12.86,25.01-23.58,3.21-.71,6.06-1.42,9.28-2.14,1.07-.72,2.15-1.07,3.22-1.43,6.41-2.5,12.49-5.71,18.21-10,5.36-3.93,10.36-8.21,13.93-13.57,3.93-6.43,7.15-13.22,8.57-20.36,1.43-5.72,2.15-11.43,1.79-17.14v-6.08l.35.37c1.42.35,2.15.35,2.85-.72.36,0,.36-.36,0-.36,0-.36-.71-.36-.71-1.07h2.5c-4.65-5.36-7.15-9.64-7.86-12.86-1.07-6.79-3.22-13.57-5.71-20-.72-1.43-1.09-2.14-1.43-3.57-1.43-2.86-2.5-5-3.22-7.14h2.86c0-.35.36-.35.36-.72.34-.71.34-1.07,0-1.43-1.08-1.07-2.16-2.5-2.86-3.57v-.35h0q0-.36.36-.36c0-.36,0-.72.34-1.07-.34-1.08-.71-1.79-1.07-2.86-.34-1.78-.71-3.57-1.07-5.36,1.79,0,3.93-.36,5.72-1.78,1.07-.72,1.78-1.07,2.14-1.78.71,0,1.43-.36,2.14-.36,2.5-.36,2.86-1.79,1.43-3.93-.72-1.07-1.78-2.5-2.86-3.57-1.42-1.43-2.84-2.5-4.28-3.57,0-.72,0-1.07-.36-1.43,0-1.42-.36-2.86-.72-3.93v-.36c0-1.07-.35-2.14-.72-2.86,0-.35-.36-.35-.36-.35v-.36c.36-.36,1.08-.71,1.79-1.08.36,0,.71-.35,1.43-.35h1.07s.36,0,.36-.36c.35-1.07.35-1.78.35-2.86Zm-83.22,182.52c3.93,7.14,6.43,15,7.5,23.21-6.08-2.86-12.5-5-18.93-7.14-2.15-.71-4.29-2.14-5.72-4.28-1.07-1.07-1.78-2.15-2.5-3.22v-15c1.78-.35,3.22-1.07,5-1.43,1.78,0,3.58-.36,5-.72v1.43c.72,1.07,1.78,2.14,3.22,2.86v.36c.35.36.71.72.71,1.43l5.72,2.5Z"/>
</svg>