<?xml version="1.0" encoding="UTF-8"?>
<svg id="Laag_1" data-name="Laag 1" xmlns="http://www.w3.org/2000/svg" viewBox="0 0 143.82 143.81">
  <defs>
    <style>
      .cls-1 {
        fill: #fff;
      }

      .cls-2 {
        fill: #cdd10a;
        stroke: #cdd102;
        stroke-miterlimit: 10;
      }
    </style>
  </defs>
  <path class="cls-2" d="m143.32,50.29v43.24c0,14.33,0,21.5-2.44,29.23-3.07,8.42-9.71,15.06-18.14,18.12-7,2.21-13.55,2.41-25.42,2.42-1.21.01-2.47.01-3.8.01h-43.23c-14.35,0-21.52,0-29.23-2.44-8.42-3.06-15.07-9.7-18.14-18.12-2.43-7.73-2.43-14.9-2.43-29.23v-43.24c0-14.33,0-21.5,2.43-29.21C6.01,12.64,12.65,6.01,21.07,2.94,28.78.5,35.95.5,50.3.5h43.23c14.34,0,21.5,0,29.21,2.44,8.42,3.07,15.06,9.7,18.14,18.14,2.44,7.72,2.44,14.89,2.44,29.21Z"/>
  <path class="cls-1" d="m123.45,32.41s.5-3.33-1.63-3.83c0,0-.28-1.77-.85-2.48,0,0,.5-2.69-.85-3.4-1.35-.71-2.2-.43-2.2.71,0,0-5.88-2.13-11.7,5.03-5.81,7.16-5.46,8.72-5.88,10.56-.43,1.84-3.26,6.03-4.89,7.02-1.63.99-13.82,5.25-29.14,5.18,0,0-8.86-1.28-13.97-.28-5.1.99-6.52.5-8.22.64-1.7.14-6.17.35-4.61,3.12,0,0,2.2,3.54,5.32,5.6,0,0-.07.92.57,1.56,0,0-.99,2.2,1.56,4.54,0,0-1.49,2.27,1.7,4.54,0,0,1.49,2.69,3.76,3.62,0,0,2.91,1.7,5.25,2.62,0,0,1.28,1.2,2.2,1.98,0,0-.99,4.25,4.18,7.23,0,0,2.84,6.17,6.88,6.59,0,0,0,2.62.92,3.54,0,0,.92,11.48.71,12.9,0,0-.5,2.2-1.42,2.62,0,0-1.42.57-1.42,1.13l.5.28s.85.43,2.34-.21c0,0,.99,1.98,2.05,2.34,1.06.35,2.84,2.06,2.91,2.98,0,0,1.63-.07,1.28-1.49,0,0-.28-1.2-.99-1.56,0,0,.21-.28,1.13-.21,0,0,2.34.21,4.75.21s2.27,0,2.91-.21c0,0,1.06-.21,1.56-.21,0,0-.07-.64-.43-.78,0,0-.57-.57-2.55-.71-1.99-.14-4.04-.42-5.46-.42,0,0-2.27-.5-3.4-.5,0,0-.85-11.34-.78-12.97,0,0,5.03-1.77,6.59-5.32,0,0,.64-.64.85.21,0,0,1.06,2.27,2.13,3.05l-.14,2.34s.35.14,1.2.71c.85.57,4.82,7.3,4.89,8.44,0,0,.85,1.56-1.28,3.9,0,0-.99,1.84-.99,2.2l.85-.14s1.7-.64,2.13-1.56c.42-.92,1.06-1.28,1.06-1.06,0,.21,2.55,1.7,2.77,2.55,0,0,.85.99.57,1.42,0,0,1.35-.21,1.28-1.91,0,0,0-.71-.14-.99,0,0,.5-.07,1.49.21,0,0,1.49.35,2.13.28.64-.07,4.04.28,4.4.43.35.14,2.62.99,3.26.35,0,0,1.21-.28,1.49-.07,0,0-.28-.71-1.21-.85,0,0,.28-.71-2.41-1.21-2.69-.5-7.37-1.13-8.79-1.28,0,0-.85-.64-1.35-1.35-.5-.71-2.27-2.27-2.41-2.48-.14-.21-3.97-7.51-3.97-8.65,0,0,3.33-4.18,3.4-6.73,0,0,2.2-2.84,3.05-4.82,0,0,16.45-14.25,18.43-19.07,1.98-4.82,3.47-11.56,2.91-19.92-.57-8.37-.71-11.06-.92-12.48,0,0,.85-.36.99-1.21,0,0,2.06,2.06,2.91-2.69,0,0,2.41.07,2.76.43Z"/>
  <path class="cls-1" d="m38.45,80.42c-10.46,0-18.95,8.48-18.95,18.95s8.48,18.95,18.95,18.95,18.95-8.48,18.95-18.95-8.48-18.95-18.95-18.95Zm1.33,26.12v3.43h-3.79v-2.95c-2.79-.51-4.54-2.18-4.64-4.63h3.28c.16,1.28,1.48,2.11,3.4,2.11,1.76,0,3.01-.83,3.01-2.03,0-1.01-.81-1.59-2.8-2.01l-2.11-.44c-2.96-.6-4.41-2.11-4.41-4.52s1.65-4.16,4.27-4.73v-3.54h3.79v3c2.56.56,4.27,2.27,4.35,4.58h-3.19c-.16-1.26-1.35-2.09-2.99-2.09s-2.82.77-2.82,1.98c0,.98.77,1.54,2.68,1.94l1.96.41c3.26.67,4.66,2.05,4.66,4.52,0,2.66-1.74,4.44-4.64,4.98Z"/>
</svg>