<?xml version="1.0" encoding="UTF-8"?>
<svg id="Laag_1" data-name="Laag 1" xmlns="http://www.w3.org/2000/svg" viewBox="0 0 143.82 143.81">
  <defs>
    <style>
      .cls-1 {
        fill: #fff;
      }

      .cls-2 {
        fill: #cdd10a;
        stroke: #cdd102;
        stroke-miterlimit: 10;
      }
    </style>
  </defs>
  <path class="cls-2" d="m143.32,50.29v43.24c0,14.33,0,21.5-2.44,29.23-3.07,8.42-9.71,15.06-18.14,18.12-7,2.21-13.55,2.41-25.42,2.42-1.21.01-2.47.01-3.8.01h-43.23c-14.35,0-21.52,0-29.23-2.44-8.42-3.06-15.07-9.7-18.14-18.12-2.43-7.73-2.43-14.9-2.43-29.23v-43.24c0-14.33,0-21.5,2.43-29.21C6.01,12.64,12.65,6.01,21.07,2.94,28.78.5,35.95.5,50.3.5h43.23c14.34,0,21.5,0,29.21,2.44,8.42,3.07,15.06,9.7,18.14,18.14,2.44,7.72,2.44,14.89,2.44,29.21Z"/>
  <path class="cls-1" d="m113.45,41.89s.47-3.16-1.55-3.63c0,0-.27-1.68-.81-2.35,0,0,.47-2.55-.81-3.23-1.28-.67-2.08-.4-2.08.67,0,0-5.58-2.02-11.09,4.77-5.51,6.79-5.18,8.27-5.58,10.02-.4,1.75-3.09,5.71-4.64,6.65-1.55.94-13.11,4.97-27.62,4.91,0,0-8.4-1.21-13.24-.27-4.84.94-6.18.47-7.8.61-1.61.13-5.85.34-4.37,2.96,0,0,2.08,3.36,5.04,5.31,0,0-.07.87.54,1.48,0,0-.94,2.08,1.48,4.3,0,0-1.41,2.15,1.61,4.3,0,0,1.41,2.55,3.56,3.43,0,0,2.76,1.61,4.97,2.49,0,0,1.21,1.14,2.08,1.88,0,0-.94,4.03,3.97,6.86,0,0,2.69,5.85,6.52,6.25,0,0,0,2.49.87,3.36,0,0,.87,10.89.67,12.23,0,0-.47,2.08-1.34,2.49,0,0-1.34.54-1.34,1.08l.47.27s.81.4,2.22-.2c0,0,.94,1.88,1.95,2.22,1.01.34,2.69,1.95,2.76,2.82,0,0,1.55-.07,1.21-1.41,0,0-.27-1.14-.94-1.48,0,0,.2-.27,1.08-.2,0,0,2.22.2,4.5.2s2.15,0,2.76-.2c0,0,1.01-.2,1.48-.2,0,0-.07-.6-.4-.74,0,0-.54-.54-2.42-.67-1.88-.13-3.83-.4-5.18-.4,0,0-2.15-.47-3.23-.47,0,0-.81-10.75-.74-12.3,0,0,4.77-1.68,6.25-5.04,0,0,.61-.6.81.2,0,0,1.01,2.15,2.02,2.89l-.13,2.22s.34.14,1.14.67c.81.54,4.57,6.92,4.64,8,0,0,.81,1.48-1.21,3.7,0,0-.94,1.75-.94,2.08l.81-.14s1.61-.6,2.02-1.48c.4-.87,1.01-1.21,1.01-1.01s2.42,1.61,2.62,2.42c0,0,.81.94.54,1.34,0,0,1.28-.2,1.21-1.81,0,0,0-.67-.13-.94,0,0,.47-.07,1.41.2,0,0,1.41.34,2.02.27.6-.07,3.83.27,4.17.4.34.13,2.49.94,3.09.34,0,0,1.14-.27,1.41-.07,0,0-.27-.67-1.14-.81,0,0,.27-.67-2.28-1.14-2.55-.47-6.99-1.07-8.33-1.21,0,0-.81-.61-1.28-1.28-.47-.67-2.15-2.15-2.28-2.35-.14-.2-3.76-7.12-3.76-8.2,0,0,3.16-3.96,3.23-6.38,0,0,2.08-2.69,2.89-4.57,0,0,15.59-13.51,17.48-18.08,1.88-4.57,3.29-10.96,2.76-18.89-.54-7.93-.67-10.48-.87-11.83,0,0,.81-.34.94-1.14,0,0,1.95,1.95,2.76-2.55,0,0,2.29.07,2.62.4Z"/>
  <path class="cls-1" d="m85.04,24.23l-13.68,16.14-6.93-6.46.98-1.05,5.83,5.44,12.86-15.18c-3.01-3.25-7.32-5.29-12.09-5.29-9.09,0-16.49,7.4-16.49,16.49s7.4,16.49,16.49,16.49,16.49-7.4,16.49-16.49c0-3.8-1.29-7.3-3.46-10.09Z"/>
</svg>